PathFileType	4	(X/Y/Z)	two_link_04.trc				
DataRate	CameraRate	NumFrames	NumMarkers	Units	OrigDataRate	OrigDataStartFrame	OrigNumFrames
60	60	61	2	m	60	1	61
Frame#	Time	Link2_Marker_1			Link1_Marker_1		
		X1	Y1	Z1	X2	Y2	Z2
							
1	0	-0.1479899	0.4479899	0	0.05	0.25	0
2	0.016666667	-0.123101572	0.440200958	0	0.05	0.25	0
3	0.033333333	-0.098213244	0.432412016	0	0.05	0.25	0
4	0.05	-0.073324917	0.424623074	0	0.05	0.25	0
5	0.066666667	-0.048436589	0.416834132	0	0.05	0.25	0
6	0.083333333	-0.023548261	0.409045189	0	0.05	0.25	0
7	0.1	0.001340067	0.401256247	0	0.05	0.25	0
8	0.116666667	0.026228394	0.393467305	0	0.05	0.25	0
9	0.133333333	0.051116722	0.385678363	0	0.05	0.25	0
10	0.15	0.07600505	0.377889421	0	0.05	0.25	0
11	0.166666667	0.100893378	0.370100479	0	0.05	0.25	0
12	0.183333333	0.125781706	0.362311537	0	0.05	0.25	0
13	0.2	0.150670033	0.354522595	0	0.05	0.25	0
14	0.216666667	0.175558361	0.346733653	0	0.05	0.25	0
15	0.233333333	0.200446689	0.338944711	0	0.05	0.25	0
16	0.25	0.225335017	0.331155768	0	0.05	0.25	0
17	0.266666667	0.250223344	0.323366826	0	0.05	0.25	0
18	0.283333333	0.275111672	0.315577884	0	0.05	0.25	0
19	0.3	0.3	0.3	0	0.05	0.25	0
20	0.316666667	0.308333333	0.3	0	0.05	0.25	0
21	0.333333333	0.316666667	0.3	0	0.05	0.25	0
22	0.35	0.325	0.3	0	0.05	0.25	0
23	0.366666667	0.333333333	0.3	0	0.05	0.25	0
24	0.383333333	0.341666667	0.3	0	0.05	0.25	0
25	0.4	0.35	0.3	0	0.05	0.25	0
26	0.416666667	0.358333333	0.3	0	0.05	0.25	0
27	0.433333333	0.366666667	0.3	0	0.05	0.25	0
28	0.45	0.375	0.3	0	0.05	0.25	0
29	0.466666667	0.383333333	0.3	0	0.05	0.25	0
30	0.483333333	0.391666667	0.3	0	0.05	0.25	0
31	0.5	0.4	0.3	0	0.05	0.25	0
32	0.516666667	0.391666667	0.3	0	0.05	0.25	0
33	0.533333333	0.383333333	0.3	0	0.05	0.25	0
34	0.55	0.375	0.3	0	0.05	0.25	0
35	0.566666667	0.366666667	0.3	0	0.05	0.25	0
36	0.583333333	0.358333333	0.3	0	0.05	0.25	0
37	0.6	0.35	0.3	0	0.05	0.25	0
38	0.616666667	0.341666667	0.3	0	0.05	0.25	0
39	0.633333333	0.333333333	0.3	0	0.05	0.25	0
40	0.65	0.325	0.3	0	0.05	0.25	0
41	0.666666667	0.316666667	0.3	0	0.05	0.25	0
42	0.683333333	0.308333333	0.3	0	0.05	0.25	0
43	0.7	0.3	0.3	0	0.05	0.25	0
44	0.716666667	0.291666667	0.3	0	0.05	0.25	0
45	0.733333333	0.283333333	0.3	0	0.05	0.25	0
46	0.75	0.275	0.3	0	0.05	0.25	0
47	0.766666667	0.266666667	0.3	0	0.05	0.25	0
48	0.783333333	0.258333333	0.3	0	0.05	0.25	0
49	0.8	0.25	0.3	0	0.05	0.25	0
50	0.816666667	0.257344097	0.3	0	0.05	0.25	0
51	0.833333333	0.264688193	0.3	0	0.05	0.25	0
52	0.85	0.27203229	0.3	0	0.05	0.25	0
53	0.866666667	0.279376387	0.3	0	0.05	0.25	0
54	0.883333333	0.286720484	0.3	0	0.05	0.25	0
55	0.9	0.29406458	0.3	0	0.05	0.25	0
56	0.916666667	0.301408677	0.3	0	0.05	0.25	0
57	0.933333333	0.308752774	0.3	0	0.05	0.25	0
58	0.95	0.31609687	0.3	0	0.05	0.25	0
59	0.966666667	0.323440967	0.3	0	0.05	0.25	0
60	0.983333333	0.330785064	0.3	0	0.05	0.25	0
61	1	0.3	0.3	0	0.05	0.25	0
